<?xml version="1.0" standalone="no"?>
<!DOCTYPE svg PUBLIC "-//W3C//DTD SVG 20010904//EN"
 "http://www.w3.org/TR/2001/REC-SVG-20010904/DTD/svg10.dtd">
<svg version="1.0" xmlns="http://www.w3.org/2000/svg"
 width="300.000000pt" height="300.000000pt" viewBox="0 0 300.000000 300.000000"
 preserveAspectRatio="xMidYMid meet">
<metadata>
Created by potrace 1.11, written by Peter Selinger 2001-2013
</metadata>
<g transform="translate(0.000000,300.000000) scale(0.100000,-0.100000)"
fill="#000000" stroke="none">
<path d="M178 2027 c0 -1 -2 -266 -3 -589 l-1 -588 133 0 c99 0 133 3 134 13
9 116 -5 759 -17 779 -3 4 0 8 5 8 6 0 11 -6 11 -13 0 -26 132 -277 278 -527
l148 -255 149 0 150 0 0 585 0 585 -135 0 -135 0 1 -320 c0 -176 3 -360 6
-410 5 -69 4 -84 -5 -65 -54 124 -328 633 -420 781 -10 16 -28 18 -154 18 -79
0 -144 -1 -145 -2z"/>
<path d="M1398 2027 c0 -1 -2 -267 -3 -590 l-1 -588 305 3 c342 5 370 9 455
74 180 137 152 435 -48 506 l-28 11 45 28 c74 46 115 118 121 210 11 173 -92
299 -274 333 -56 11 -566 23 -572 13z m510 -232 c42 -18 66 -66 59 -122 -9
-84 -82 -123 -228 -123 l-76 0 0 130 1 131 106 -2 c62 -1 119 -7 138 -14z m18
-479 c49 -20 74 -60 74 -119 0 -91 -58 -126 -214 -131 -58 -1 -109 0 -114 3
-6 3 -9 66 -9 139 l1 133 110 -5 c71 -2 126 -10 152 -20z"/>
</g>
</svg>
