<?xml version="1.0" standalone="no"?>
<!DOCTYPE svg PUBLIC "-//W3C//DTD SVG 20010904//EN"
 "http://www.w3.org/TR/2001/REC-SVG-20010904/DTD/svg10.dtd">
<svg version="1.0" xmlns="http://www.w3.org/2000/svg"
 width="700.000000pt" height="700.000000pt" viewBox="0 0 700.000000 700.000000"
 preserveAspectRatio="xMidYMid meet">
<metadata>
Created by potrace 1.11, written by Peter Selinger 2001-2013
</metadata>
<g transform="translate(0.000000,700.000000) scale(0.100000,-0.100000)"
fill="#000000" stroke="none">
<path d="M524 4951 c-2 -2 -4 -671 -4 -1486 l0 -1482 363 1 362 1 1 1008 c1
554 3 1010 5 1012 3 2 23 -33 46 -78 24 -45 85 -161 137 -259 52 -97 124 -234
162 -305 37 -70 101 -191 142 -268 41 -77 97 -183 124 -235 28 -52 67 -126 88
-165 45 -83 102 -192 195 -370 37 -71 71 -134 75 -140 4 -5 27 -47 50 -92 22
-46 48 -89 55 -97 11 -11 90 -13 434 -13 379 0 421 2 422 16 1 9 2 676 3 1483
1 1299 -1 1468 -14 1469 -93 6 -703 2 -707 -5 -3 -5 -6 -460 -6 -1012 0 -552
-3 -1004 -7 -1004 -3 0 -16 21 -27 48 -12 26 -48 97 -80 157 -33 61 -83 155
-112 210 -30 55 -68 127 -86 160 -18 33 -58 110 -90 170 -32 61 -70 133 -85
160 -36 65 -101 188 -185 350 -37 72 -71 135 -75 140 -4 6 -41 75 -83 155 -41
80 -96 183 -121 230 -25 47 -65 121 -87 165 l-41 80 -425 0 c-234 0 -427 -2
-429 -4z"/>
<path d="M3939 4950 c-1 -3 -2 -670 -3 -1483 -1 -1470 -1 -1478 19 -1482 28
-6 1496 1 1520 8 11 2 47 8 80 11 122 14 286 58 393 107 287 131 431 371 432
724 0 102 -4 146 -25 227 -57 227 -199 395 -405 479 l-79 32 69 35 c146 72
252 206 296 370 20 74 23 106 20 217 -2 72 -6 139 -9 150 -30 121 -56 187 -96
250 -111 173 -329 287 -635 330 -20 3 -51 7 -68 10 -103 14 -288 18 -866 19
-353 1 -643 -1 -643 -4z m1316 -531 c153 -35 236 -137 237 -289 1 -171 -67
-267 -222 -311 -31 -8 -128 -13 -306 -14 l-261 -2 0 313 -1 313 27 3 c66 8
481 -2 526 -13z m-11 -1143 c236 -21 357 -138 370 -355 12 -229 -111 -378
-337 -408 -29 -4 -169 -7 -312 -7 l-260 -1 -1 385 c-1 372 -1 385 18 390 26 7
435 4 522 -4z"/>
</g>
</svg>
