<?xml version="1.0" encoding="UTF-8" standalone="no"?>
<svg width="130px" height="130px" viewBox="0 0 130 130" version="1.1" xmlns="http://www.w3.org/2000/svg" xmlns:xlink="http://www.w3.org/1999/xlink">
    <!-- Generator: Sketch 40 (33762) - http://www.bohemiancoding.com/sketch -->
    <title>skills-design-icon</title>
    <desc>Created with Sketch.</desc>
    <defs></defs>
    <g id="My-Skills-Output" stroke="none" stroke-width="1" fill="none" fill-rule="evenodd">
        <g id="skills-design-icon" fill="#4A90E2">
            <path d="M59.3282607,70.180772 L27.9142256,104.20846 L74.0610211,87.3719946 L94.5996267,51.4135902 L76.0535756,32.7710353 L38.514894,55.0689931 L25.5382137,102.028069 L56.9695389,67.9962206 C55.9175646,66.5720771 55.2956806,64.810891 55.2956806,62.9044561 C55.2956806,58.1666924 59.1363969,54.325976 63.8741606,54.325976 C68.6119243,54.325976 72.4526406,58.1666924 72.4526406,62.9044561 C72.4526406,67.6422197 68.6119243,71.4829361 63.8741606,71.4829361 C62.2045044,71.4829361 60.6462579,71.0059348 59.3282607,70.180772 Z M76.0535756,90.3761064 L20,110.208331 L35.0347218,52.6285453 L74.0610211,28.9568556 L75.6604596,20.3198877 L85.2570905,20 L108.608893,42.3921389 L108.608893,52.6285453 L98.5259547,52.6285453 L76.0535756,90.3761064 Z M78.1200846,23.7408336 L84.4159771,23.7408336 L105.332025,43.7883674 L105.332025,49.7623539 L98.7039336,49.7623539 L77.2886501,29.3214077 L78.1200846,23.7408336 Z M63.8741606,69.0319418 C67.2582775,69.0319418 70.0016463,66.288573 70.0016463,62.9044561 C70.0016463,59.5203391 67.2582775,56.7769703 63.8741606,56.7769703 C60.4900437,56.7769703 57.7466749,59.5203391 57.7466749,62.9044561 C57.7466749,66.288573 60.4900437,69.0319418 63.8741606,69.0319418 Z" id="Combined-Shape-Copy"></path>
        </g>
    </g>
</svg>