<?xml version="1.0" encoding="UTF-8" standalone="no"?>
<svg width="130px" height="130px" viewBox="0 0 130 130" version="1.1" xmlns="http://www.w3.org/2000/svg" xmlns:xlink="http://www.w3.org/1999/xlink">
    <!-- Generator: Sketch 40 (33762) - http://www.bohemiancoding.com/sketch -->
    <title>skills-engineering-icon</title>
    <desc>Created with Sketch.</desc>
    <defs></defs>
    <g id="My-Skills-Output" stroke="none" stroke-width="1" fill="none" fill-rule="evenodd">
        <g id="skills-engineering-icon" fill="#4A90E2">
            <g id="iconmonstr-code-4" transform="translate(20.000000, 28.000000)">
                <path d="M36.3600006,0 L36.3600006,4 C16,4 16,12.6291296 16,25.4200439 C16,27.1200687 15.4449203,35.9822 6,38 C15.4449203,40.0178 16,51.1133164 16,53.3199463 C16,66.0892999 16,72 36.3600006,72 L36.3600006,76 C6.94476012,76 12.1200002,61.6094 12,53.3178 C12.1200002,47.4468 6.31048011,42.4612 0,42.4612 L0,33.535 C6.31048011,33.5388 12.1200002,31.2816 12,25.4144 C12.1200002,17.1228 6.92860012,0 36.3600006,0 Z M54,0 L54,4 C74.3600006,4 74.3600006,12.6291296 74.3600006,25.4200439 C74.3600006,27.1200687 74.9150804,35.9822 84.3599854,38 C74.9150804,40.0178 74.3600006,51.1133164 74.3600006,53.3199463 C74.3600006,66.0892999 74.3600006,72 54,72 L54,76 C83.4152405,76 78.2400004,61.6094 78.3600006,53.3178 C78.2400004,47.4468 84.0495205,42.4612 90.3600006,42.4612 L90.3600006,33.535 C84.0495205,33.5388 78.2400004,31.2816 78.3600006,25.4144 C78.2400004,17.1228 83.4314005,0 54,0 Z" id="Shape"></path>
            </g>
        </g>
    </g>
</svg>