<?xml version="1.0" encoding="UTF-8" standalone="no"?>
<svg width="130px" height="130px" viewBox="0 0 130 130" version="1.1" xmlns="http://www.w3.org/2000/svg" xmlns:xlink="http://www.w3.org/1999/xlink">
    <!-- Generator: Sketch 40 (33762) - http://www.bohemiancoding.com/sketch -->
    <title>skills-salessupport-icon</title>
    <desc>Created with Sketch.</desc>
    <defs></defs>
    <g id="My-Skills-Output" stroke="none" stroke-width="1" fill="none" fill-rule="evenodd">
        <g id="skills-salessupport-icon">
            <g id="Group" transform="translate(4.000000, 24.000000)">
                <g id="iconmonstr-help-6-copy-2" fill="#4A90E2">
                    <path d="M33.9935377,4 C50.5336282,4 63.9900746,14.844722 63.9900746,28.1741896 C63.9900746,43.0192615 48.5568564,52.2094991 34.2635066,52.2094991 C28.4531774,52.2094991 24.1156781,51.0109037 21.0830283,50.2651782 C18.0833746,52.115906 16.2985806,53.396018 8.2685077,55.7599983 C9.87332242,51.6147301 10.4372573,47.4634237 10.0742992,42.8834005 C7.56058943,39.8642686 4.0000005,35.6374838 4.0000005,28.1741896 C3.99700085,14.844722 17.4534473,4 33.9935377,4 L33.9935377,4 Z M33.6,5.00609655e-15 C15.8536,5.00609655e-15 0,11.9096364 0,28.2015455 C0,33.9788182 2.0664,39.6518182 5.7316,44.0538182 C5.8856,49.2110909 2.8672,56.6116364 0.1512,62 C7.4368,60.6754545 17.794,57.7501818 22.4896,54.8530909 C26.46,55.8253636 30.2596,56.2706364 33.8548,56.2706364 C53.69,56.2706364 67.2028,42.6390909 67.2028,28.1987273 C67.2,11.8222727 51.2372,0 33.6,0 L33.6,5.00609655e-15 Z M35,38.4990239 C35,39.6039531 34.1054688,40.5 33,40.5 C31.8964844,40.5 31,39.6039531 31,38.4990239 C31,37.3960469 31.8964844,36.5 33,36.5 C34.1054688,36.5 35,37.3960469 35,38.4990239 L35,38.4990239 Z M38.2874442,16.3066119 C37.0711558,14.8834301 35.2564925,14.0999756 33.1829405,14.0999756 C28.82091,14.0999756 26,17.6818847 26,23.2224301 L30.0225443,23.2224301 C30.0225443,19.7927029 31.6833398,18.5752483 33.102343,18.5752483 C34.3699208,18.5752483 35.7156536,19.547521 35.8304438,21.4047029 C35.9574458,23.360521 35.0513354,24.352521 33.905875,25.6122483 C31.0800803,28.7122483 31.0263487,30.2143392 31.0410028,33.621521 L35.0537777,33.621521 C35.0293543,32.0884301 35.1148364,30.8427938 36.924615,28.5910665 C38.2801172,26.9057938 39.9653361,24.8090665 39.999529,21.6104301 C40.0190677,19.4742483 39.4304623,17.6396119 38.2874442,16.3066119 L38.2874442,16.3066119 Z" id="Shape"></path>
                </g>
                <g id="iconmonstr-speech-bubble-6-copy-2" transform="translate(91.000000, 54.000000) scale(-1, 1) translate(-91.000000, -54.000000) translate(58.000000, 24.000000)" fill="#4990E2">
                    <path d="M32.6385663,3.45996094 C48.7402516,3.45996094 61.8400269,13.9771715 61.8400269,26.9040881 C61.8400269,41.3008376 46.8158754,50.2135294 32.9013794,50.2135294 C27.2450565,50.2135294 23.0225253,49.0511317 20.0702576,48.3279271 C17.1501116,50.1227628 15.4126247,51.3642153 7.59539366,53.6568032 C9.1576718,49.6367225 9.70665926,45.6107858 9.35332159,41.1690797 C6.90623919,38.2411257 3.44002582,34.1419902 3.44002582,26.9040881 C3.43710567,13.9771715 16.5368809,3.45996094 32.6385663,3.45996094 L32.6385663,3.45996094 Z M32.64,4.84460956e-15 C15.40064,4.84460956e-15 0,11.5254545 0,27.2918182 C0,32.8827273 2.00736,38.3727273 5.56784,42.6327273 C5.71744,47.6236364 2.78528,54.7854545 0.14688,60 C7.22432,58.7181818 17.2856,55.8872727 21.84704,53.0836364 C25.704,54.0245455 29.39504,54.4554545 32.88752,54.4554545 C52.156,54.4554545 65.28272,41.2636364 65.28272,27.2890909 C65.28,11.4409091 49.77328,0 32.64,0 L32.64,4.84460956e-15 Z M32.64,39.4545455 L19.04,39.4545455 L19.04,35.4545455 L32.64,35.4545455 L32.64,39.4545455 L32.64,39.4545455 Z M46.24,31.2727273 L19.04,31.2727273 L19.04,27.2727273 L46.24,27.2727273 L46.24,31.2727273 L46.24,31.2727273 Z M46.24,23.0909091 L19.04,23.0909091 L19.04,19.0909091 L46.24,19.0909091 L46.24,23.0909091 L46.24,23.0909091 Z" id="Shape"></path>
                </g>
            </g>
        </g>
    </g>
</svg>