<?xml version="1.0" encoding="UTF-8" standalone="no"?>
<svg width="130px" height="130px" viewBox="0 0 130 130" version="1.1" xmlns="http://www.w3.org/2000/svg" xmlns:xlink="http://www.w3.org/1999/xlink">
    <!-- Generator: Sketch 40 (33762) - http://www.bohemiancoding.com/sketch -->
    <title>skills-marketing-icon</title>
    <desc>Created with Sketch.</desc>
    <defs></defs>
    <g id="My-Skills-Output" stroke="none" stroke-width="1" fill="none" fill-rule="evenodd">
        <g id="skills-marketing-icon" fill="#4A90E2">
            <g id="iconmonstr-flip-chart-2-copy-2" transform="translate(24.000000, 24.000000)">
                <path d="M61.76651,82 L58.2041816,82 L53.56651,65.6 L57.1369747,65.6 L61.76651,82 Z M43.05,82 L43.05,65.6 L38.95,65.6 L38.95,82 L43.05,82 Z M24.1040727,82 L28.7409775,65.6 L25.1711031,65.6 L20.5409775,82 L24.1040727,82 Z M47.9886364,17.9375 L47.9886364,22.0375 L64.0159091,22.0375 L64.0159091,17.9375 L47.9886364,17.9375 Z M47.9886364,25.9666667 L47.9886364,30.0666667 L64.0159091,30.0666667 L64.0159091,25.9666667 L47.9886364,25.9666667 Z M47.9886364,33.9958333 L47.9886364,38.0958333 L64.0159091,38.0958333 L64.0159091,33.9958333 L47.9886364,33.9958333 Z M47.9886364,42.025 L47.9886364,46.125 L64.0159091,46.125 L64.0159091,42.025 L47.9886364,42.025 Z M43.7814773,33.9958333 L27.9545455,33.9958333 L27.9545455,18.1382292 C21.1669955,19.1218021 15.9340909,24.9148458 15.9340909,31.9885417 C15.9340909,39.7487312 22.212775,46.0395833 29.9579545,46.0395833 C37.0179682,46.0395833 42.7998068,40.7965375 43.7814773,33.9958333 Z M31.9613636,29.98125 L43.7814773,29.98125 C42.8959705,23.8429521 38.0877886,19.0254521 31.9613636,18.1382292 L31.9613636,29.98125 Z M78.2727273,4.1 L78.2727273,65.6 L3.72727273,65.6 L3.72727273,4.1 L0,4.1 L0,5.689893e-16 L82,0 L82,4.1 L78.2727273,4.1 Z M8.2,4.1 L8.2,61.5 L73.8,61.5 L73.8,4.1 L8.2,4.1 Z" id="Shape"></path>
            </g>
        </g>
    </g>
</svg>